<svg width="800" height="777" viewBox="0 0 800 777" fill="none" xmlns="http://www.w3.org/2000/svg">
<g clip-path="url(#clip0_2_16)">
<path d="M473.216 51.8031L528.567 123.438C472.514 164.12 423.45 212.181 383.928 266.672C316.614 359.316 276.739 470.737 276.809 589.767V776.478H420.713V589.767C420.783 502.866 449.239 421.92 500.427 351.13C531.256 308.548 570.605 270.044 616.539 237.264L677.089 315.611L800 0L473.216 51.8031Z" fill="white"/>
<path d="M318.598 281.727C254.447 193.298 164.595 122.138 59.0578 74.6031L0 205.841C84.3531 243.764 154.109 299.923 202.1 366.184C224.655 397.364 242.273 430.689 254.852 465.627C268.448 404.814 291.898 346.07 324.905 291.125C322.763 288.016 320.813 284.783 318.598 281.727Z" fill="white"/>
</g>
<defs>
<clipPath id="clip0_2_16">
<rect width="800" height="777" fill="white"/>
</clipPath>
</defs>
</svg>
